<svg width="13" height="13" viewBox="0 0 13 13" fill="none" xmlns="http://www.w3.org/2000/svg">
<g clip-path="url(#clip0_447_1565)">
<path d="M0.541667 2.57287H2.02367C2.13993 3.00065 2.39372 3.37827 2.74589 3.6475C3.09805 3.91673 3.52902 4.0626 3.97231 4.0626C4.4156 4.0626 4.84657 3.91673 5.19874 3.6475C5.55091 3.37827 5.8047 3.00065 5.92096 2.57287H12.4583C12.602 2.57287 12.7398 2.51581 12.8414 2.41422C12.9429 2.31264 13 2.17487 13 2.03121C13 1.88755 12.9429 1.74977 12.8414 1.64819C12.7398 1.54661 12.602 1.48954 12.4583 1.48954H5.92096C5.8047 1.06177 5.55091 0.684139 5.19874 0.414911C4.84657 0.145683 4.4156 -0.000183105 3.97231 -0.000183105C3.52902 -0.000183105 3.09805 0.145683 2.74589 0.414911C2.39372 0.684139 2.13993 1.06177 2.02367 1.48954H0.541667C0.398008 1.48954 0.260233 1.54661 0.158651 1.64819C0.0570683 1.74977 0 1.88755 0 2.03121C0 2.17487 0.0570683 2.31264 0.158651 2.41422C0.260233 2.51581 0.398008 2.57287 0.541667 2.57287ZM3.97204 1.08329C4.15952 1.08329 4.34279 1.13888 4.49868 1.24304C4.65456 1.3472 4.77606 1.49525 4.8478 1.66846C4.91955 1.84166 4.93832 2.03226 4.90174 2.21614C4.86517 2.40001 4.77489 2.56892 4.64232 2.70149C4.50975 2.83405 4.34085 2.92433 4.15697 2.96091C3.97309 2.99749 3.7825 2.97871 3.60929 2.90697C3.43608 2.83522 3.28804 2.71373 3.18388 2.55784C3.07972 2.40196 3.02413 2.21869 3.02413 2.03121C3.02441 1.77989 3.12437 1.53895 3.30208 1.36125C3.47979 1.18354 3.72073 1.08358 3.97204 1.08329Z" fill="black"/>
<path d="M12.4583 5.95833H10.9763C10.8603 5.53046 10.6066 5.15269 10.2544 4.88335C9.9023 4.61401 9.47129 4.46808 9.02796 4.46808C8.58462 4.46808 8.15362 4.61401 7.80148 4.88335C7.44934 5.15269 7.19565 5.53046 7.07958 5.95833H0.541667C0.398008 5.95833 0.260233 6.0154 0.158651 6.11698C0.0570683 6.21856 0 6.35634 0 6.5C0 6.64366 0.0570683 6.78143 0.158651 6.88301C0.260233 6.9846 0.398008 7.04166 0.541667 7.04166H7.07958C7.19565 7.46953 7.44934 7.8473 7.80148 8.11664C8.15362 8.38598 8.58462 8.53192 9.02796 8.53192C9.47129 8.53192 9.9023 8.38598 10.2544 8.11664C10.6066 7.8473 10.8603 7.46953 10.9763 7.04166H12.4583C12.602 7.04166 12.7398 6.9846 12.8414 6.88301C12.9429 6.78143 13 6.64366 13 6.5C13 6.35634 12.9429 6.21856 12.8414 6.11698C12.7398 6.0154 12.602 5.95833 12.4583 5.95833ZM9.02796 7.44791C8.84048 7.44791 8.65721 7.39232 8.50132 7.28816C8.34544 7.184 8.22394 7.03596 8.1522 6.86275C8.08045 6.68954 8.06168 6.49895 8.09826 6.31507C8.13483 6.13119 8.22511 5.96229 8.35768 5.82972C8.49025 5.69715 8.65915 5.60687 8.84303 5.57029C9.02691 5.53372 9.2175 5.55249 9.39071 5.62424C9.56392 5.69598 9.71196 5.81748 9.81612 5.97336C9.92028 6.12925 9.97587 6.31252 9.97587 6.5C9.97559 6.75131 9.87563 6.99225 9.69792 7.16996C9.52021 7.34767 9.27927 7.44763 9.02796 7.44791Z" fill="black"/>
<path d="M12.4583 10.4271H5.92096C5.8047 9.99932 5.55091 9.62169 5.19874 9.35246C4.84657 9.08323 4.4156 8.93736 3.97231 8.93736C3.52902 8.93736 3.09805 9.08323 2.74589 9.35246C2.39372 9.62169 2.13993 9.99932 2.02367 10.4271H0.541667C0.398008 10.4271 0.260233 10.4842 0.158651 10.5857C0.0570683 10.6873 0 10.8251 0 10.9688C0 11.1124 0.0570683 11.2502 0.158651 11.3518C0.260233 11.4534 0.398008 11.5104 0.541667 11.5104H2.02367C2.13993 11.9382 2.39372 12.3158 2.74589 12.585C3.09805 12.8543 3.52902 13.0001 3.97231 13.0001C4.4156 13.0001 4.84657 12.8543 5.19874 12.585C5.55091 12.3158 5.8047 11.9382 5.92096 11.5104H12.4583C12.602 11.5104 12.7398 11.4534 12.8414 11.3518C12.9429 11.2502 13 11.1124 13 10.9688C13 10.8251 12.9429 10.6873 12.8414 10.5857C12.7398 10.4842 12.602 10.4271 12.4583 10.4271ZM3.97204 11.9167C3.78456 11.9167 3.60129 11.8611 3.44541 11.7569C3.28952 11.6528 3.16803 11.5047 3.09628 11.3315C3.02454 11.1583 3.00576 10.9677 3.04234 10.7838C3.07891 10.5999 3.16919 10.431 3.30176 10.2985C3.43433 10.1659 3.60323 10.0756 3.78711 10.0391C3.97099 10.0025 4.16158 10.0212 4.33479 10.093C4.508 10.1647 4.65605 10.2862 4.76021 10.4421C4.86436 10.598 4.91996 10.7813 4.91996 10.9688C4.91953 11.22 4.81952 11.4609 4.64185 11.6386C4.46417 11.8162 4.22331 11.9162 3.97204 11.9167Z" fill="black"/>
</g>
<defs>
<clipPath id="clip0_447_1565">
<rect width="13" height="13" fill="white"/>
</clipPath>
</defs>
</svg>
