<?xml version="1.0" encoding="UTF-8"?>
<svg xmlns="http://www.w3.org/2000/svg" id="Layer_1" height="512" viewBox="0 0 48 48" width="512" data-name="Layer 1">
  <path d="m33.37 45h-22.74a7 7 0 0 1 -6.965-7.7l2.16-21.6a2.986 2.986 0 0 1 2.985-2.7h26.38a2.987 2.987 0 0 1 2.985 2.7l.91 9.077a1 1 0 1 1 -1.99.2l-.91-9.08a.994.994 0 0 0 -1-.9h-26.375a.994.994 0 0 0 -1 .9l-2.155 21.603a5 5 0 0 0 4.975 5.5h22.721a1.039 1.039 0 0 1 1.169.99.976.976 0 0 1 -.951 1 1.621 1.621 0 0 1 -.199.01z"></path>
  <path d="m30 18a1 1 0 0 1 -1-1v-5a7 7 0 0 0 -14 0v5a1 1 0 0 1 -2 0v-5a9 9 0 0 1 18 0v5a1 1 0 0 1 -1 1z"></path>
  <path d="m34 45a11 11 0 1 1 11-11 11.013 11.013 0 0 1 -11 11zm0-20a9 9 0 1 0 9 9 9.01 9.01 0 0 0 -9-9z"></path>
  <path d="m33 38a1 1 0 0 1 -.707-.293l-3-3a1 1 0 0 1 1.414-1.414l2.293 2.293 5.293-5.293a1 1 0 0 1 1.414 1.414l-6 6a1 1 0 0 1 -.707.293z"></path>
</svg>
