<svg width="194" height="22" viewBox="0 0 194 22" fill="none" xmlns="http://www.w3.org/2000/svg">
<g clip-path="url(#clip0_834_90)">
<mask id="mask0_834_90" style="mask-type:luminance" maskUnits="userSpaceOnUse" x="0" y="0" width="38" height="22">
<path d="M38 0H0V22H38V0Z" fill="white"/>
</mask>
<g mask="url(#mask0_834_90)">
<path fill-rule="evenodd" clip-rule="evenodd" d="M32.5331 14.6334C32.4806 15.0666 32.4114 15.482 32.325 15.8804C31.9633 15.7597 31.546 15.5667 30.9566 15.6073C30.6042 15.6308 30.1884 15.7693 30.1827 16.0933C30.1762 16.4529 30.7541 16.6665 31.0754 16.8233C31.6548 17.1069 32.2766 17.4849 32.325 18.2531C32.3624 18.8439 32.0937 19.3581 31.7896 19.652C30.9783 20.4357 29.179 20.5182 27.9512 20.0174C28.0275 19.5989 28.0974 19.1731 28.1594 18.74C28.6349 18.9463 29.2878 19.2254 30.004 19.1349C30.3304 19.0935 30.7296 18.8991 30.7181 18.5574C30.7044 18.1396 29.9421 17.8914 29.558 17.6749C29.1119 17.4237 28.604 17.0053 28.5759 16.3673C28.5578 15.9424 28.7192 15.5439 28.9332 15.2721C29.5674 14.4669 31.1965 14.1804 32.5331 14.6334Z" fill="#12559C"/>
<path fill-rule="evenodd" clip-rule="evenodd" d="M17.9516 6.48849H19.5924L18.5821 12.9957H16.9414L17.9516 6.48849Z" fill="#12559C"/>
<path fill-rule="evenodd" clip-rule="evenodd" d="M13.707 7.78199L13.4541 9.41507H13.9282C14.3893 9.41507 14.8254 9.0475 14.8981 8.59816C14.9702 8.14956 14.6523 7.78199 14.1912 7.78199H13.707ZM12.268 6.48849H14.7792C16.3774 6.48849 16.7925 7.42917 16.6181 8.5525C16.4725 9.49094 15.8132 10.1171 14.9565 10.3402L16.5474 12.9957H14.4881L13.2948 10.4404L12.8978 12.9957H11.2578L12.268 6.48849Z" fill="#12559C"/>
<path fill-rule="evenodd" clip-rule="evenodd" d="M25.4439 6.48849H27.0845L26.0743 12.9957H24.4336L25.4439 6.48849Z" fill="#12559C"/>
<path fill-rule="evenodd" clip-rule="evenodd" d="M28.3297 6.48849H31.9318L31.7121 7.90353H29.7508L29.5786 9.01509H31.4426L31.2235 10.4301H29.3587L29.18 11.5807H31.1414L30.9216 12.9957H27.3203L28.3297 6.48849Z" fill="#12559C"/>
<path fill-rule="evenodd" clip-rule="evenodd" d="M7.69114 6.48849H11.2933L11.0735 7.90353H9.1121L8.93988 9.01509H10.804L10.5843 10.4301H8.72012L8.54141 11.5807H10.5028L10.2831 12.9957H6.68164L7.69114 6.48849Z" fill="#12559C"/>
<path fill-rule="evenodd" clip-rule="evenodd" d="M20.8344 6.48849H24.4761L24.2571 7.90353H22.2546L22.0796 9.01509H23.9011L23.6806 10.4301H21.8597L21.4621 12.9957H19.8242L20.8344 6.48849Z" fill="#12559C"/>
<path fill-rule="evenodd" clip-rule="evenodd" d="M34.3199 7.90353C34.4381 7.90353 34.5513 7.90353 34.6586 7.90353C35.9124 7.90353 36.4024 8.80736 36.2677 9.67951C36.0854 10.85 35.2624 11.5807 34.1873 11.5807C34.044 11.5807 33.9056 11.5807 33.7486 11.5807L34.3199 7.90353ZM32.899 6.48849H35.0369C37.5834 6.48849 38.1641 8.45747 37.9646 9.7436C37.6792 11.5807 36.0767 12.9957 34.0266 12.9957H31.8887L32.899 6.48849Z" fill="#12559C"/>
<path fill-rule="evenodd" clip-rule="evenodd" d="M0 5.60194H3.03502L3.39529 10.3295C5.40279 6.77684 7.44414 3.35822 9.49991 0H10.4892C8.31314 4.29003 6.16442 8.6088 4.08344 12.9961H1.85545L1.31215 7.78232C1.1774 6.48883 0.921597 5.93932 0 5.80009V5.60194Z" fill="#12559C"/>
<path fill-rule="evenodd" clip-rule="evenodd" d="M1.14916 2.91302L3.73671 4.03414L3.96152 6.97986H4.15246L6.50151 2.91523V2.71118H1.14844L1.14916 2.91302Z" fill="#12559C"/>
<path fill-rule="evenodd" clip-rule="evenodd" d="M11.7859 14.5256H12.848L12.4899 17.0906C12.7933 16.7914 13.1644 16.6066 13.5787 16.6066C14.4304 16.6066 14.9889 17.4456 14.8389 18.4813C14.6884 19.5169 13.885 20.3575 13.0333 20.3575C12.6131 20.3575 12.312 20.1636 12.1066 19.8381L12.0504 20.2447H10.9883L11.7859 14.5256ZM13.111 17.6569C13.5038 17.6569 13.7703 18.0246 13.7063 18.4776C13.6429 18.9306 13.2739 19.2974 12.8811 19.2974C12.4892 19.2974 12.2226 18.9306 12.286 18.4776C12.3494 18.0246 12.7191 17.6569 13.111 17.6569Z" fill="#12559C"/>
<path fill-rule="evenodd" clip-rule="evenodd" d="M14.9308 16.6934H16.2047L16.7747 18.5113L17.8815 16.6934H19.1129L15.8812 22H14.6504L16.013 19.7621L14.9308 16.6934Z" fill="#12559C"/>
<path fill-rule="evenodd" clip-rule="evenodd" d="M25.4434 20.2434L26.3764 14.5243H27.9033L26.9701 20.2434H25.4434Z" fill="#12559C"/>
<path fill-rule="evenodd" clip-rule="evenodd" d="M24.1674 14.5125C23.6415 15.7795 23.1925 17.1253 22.65 18.3752L22.4914 17.6253C22.4906 17.6225 22.4893 17.6187 22.4885 17.6159L22.5152 17.7498C22.3977 17.3551 22.1974 16.9823 21.9417 16.6412C21.9343 16.6325 21.928 16.6236 21.9214 16.6148C21.876 16.5558 21.8285 16.4983 21.781 16.4416C21.7514 16.407 21.7218 16.3724 21.6915 16.3378C21.3219 15.9246 20.8737 15.568 20.4004 15.2851L21.7579 20.2308H23.3942C24.1645 18.3008 24.9953 16.4335 25.7743 14.5125C25.239 14.5125 24.7027 14.5125 24.1674 14.5125Z" fill="#12559C"/>
<path fill-rule="evenodd" clip-rule="evenodd" d="M21.2852 14.5132H18.7891V14.6377C20.2259 14.9243 22.0397 16.1564 22.5146 17.7498L21.9791 15.0863C21.9055 14.6752 21.6259 14.5132 21.2852 14.5132Z" fill="#12559C"/>
<path fill-rule="evenodd" clip-rule="evenodd" d="M35.3645 16.097L34.587 18.2235H35.8444L35.3645 16.097ZM37.6812 20.261C37.215 20.261 36.7495 20.261 36.2833 20.261C36.1925 19.9884 36.1673 19.6496 36.075 19.3793C35.4401 19.3793 34.8054 19.3793 34.1705 19.3793L33.8139 20.261C33.2778 20.261 32.7424 20.261 32.207 20.261L34.2894 15.364C34.3817 15.1496 34.5467 14.8558 34.6166 14.7254C34.7225 14.5271 35.1318 14.5125 35.3062 14.5125H36.4612L37.6812 20.261Z" fill="#12559C"/>
<path fill-rule="evenodd" clip-rule="evenodd" d="M21.2851 14.5132H18.7891V14.6377C20.2259 14.9243 22.0397 16.1564 22.5145 17.7499L21.979 15.0863C21.9054 14.6752 21.6259 14.5132 21.2851 14.5132Z" fill="#ECA92B"/>
</g>
</g>
<path fill-rule="evenodd" clip-rule="evenodd" d="M79.982 13.8703C79.982 14.8625 79.6584 15.4481 79.1471 15.4481C78.7709 15.4579 78.5515 15.0612 78.5515 14.4756C78.5515 13.7811 78.8854 12.9868 79.4079 12.9868C79.8357 12.9868 79.982 13.4138 79.982 13.8703ZM81.1208 13.8801C81.1208 12.7783 80.5459 11.9153 79.4708 11.9153C78.2278 11.9153 77.4238 12.9573 77.4238 14.4952C77.4238 15.5969 77.9042 16.5 79.0739 16.5C80.254 16.5 81.1208 15.7057 81.1208 13.8801Z" fill="#FF9900"/>
<path fill-rule="evenodd" clip-rule="evenodd" d="M77.7899 11.1516L77.6117 12.3221C77.2261 12.1144 76.9541 12.0342 76.6511 12.0342C75.8471 12.0342 75.2833 12.8685 75.2833 14.0489C75.2833 14.8628 75.6595 15.3592 76.2861 15.3592C76.5573 15.3592 76.8499 15.2693 77.2046 15.0811L77.0169 16.3114C76.6201 16.4308 76.3585 16.4701 76.0562 16.4701C74.8969 16.4701 74.166 15.5776 74.166 14.1479C74.166 12.2231 75.168 10.8735 76.5994 10.8735C76.7871 10.8735 76.9437 10.8931 77.0797 10.9332L77.5179 11.0518C77.6642 11.0919 77.6952 11.1017 77.7899 11.1516Z" fill="#FF9900"/>
<path fill-rule="evenodd" clip-rule="evenodd" d="M70.6561 11.9451C70.625 11.9353 70.5837 11.9353 70.5416 11.9353C70.1869 11.9353 69.9881 12.1243 69.6541 12.6494L69.7583 11.9852H68.7873L68.1289 16.3613H69.2048C69.5913 13.6817 69.6954 13.2253 70.2075 13.2253C70.2386 13.2253 70.2386 13.2253 70.2911 13.2351C70.3849 12.7091 70.5209 12.3222 70.6983 11.9648L70.6561 11.9451Z" fill="#FF9900"/>
<path fill-rule="evenodd" clip-rule="evenodd" d="M84.7337 16.3207H83.7103L83.7628 15.8945C83.4701 16.2315 83.1568 16.3804 82.76 16.3804C81.9767 16.3804 81.4551 15.6557 81.4551 14.5645C81.4551 13.106 82.259 11.8751 83.2093 11.8751C83.6268 11.8751 83.9504 12.0639 84.2431 12.4804L84.4832 10.9425H85.5488L84.7337 16.3207ZM83.1362 15.2892C83.6483 15.2892 83.9926 14.6839 83.9926 13.8103C83.9926 13.2549 83.7938 12.9572 83.4184 12.9572C82.9278 12.9572 82.5827 13.5624 82.5827 14.4254C82.5827 15.0013 82.7703 15.2892 83.1362 15.2892Z" fill="#FF9900"/>
<path fill-rule="evenodd" clip-rule="evenodd" d="M60.5457 16.3012C60.1799 16.4207 59.8252 16.4804 59.4387 16.4804C58.238 16.4804 57.6113 15.8055 57.6113 14.5149C57.6113 13.0171 58.4153 11.9054 59.4904 11.9054C60.3787 11.9054 60.9425 12.5206 60.9425 13.5029C60.9425 13.8204 60.9003 14.1377 60.8065 14.5843H58.6658C58.6554 14.6538 58.6554 14.6841 58.6554 14.7234C58.6554 15.2297 58.9791 15.4874 59.6057 15.4874C59.9922 15.4874 60.3365 15.3982 60.723 15.21L60.5457 16.3012ZM59.9397 13.6911C59.9397 13.6019 59.9501 13.5226 59.9501 13.4735C59.9501 13.1161 59.7624 12.9075 59.4387 12.9075C59.0936 12.9075 58.8535 13.1856 58.7493 13.6911H59.9397Z" fill="#FF9900"/>
<path fill-rule="evenodd" clip-rule="evenodd" d="M73.3713 16.3012C73.0055 16.4207 72.6508 16.4804 72.2644 16.4804C71.0533 16.4804 70.4258 15.8055 70.4258 14.5149C70.4258 13.0171 71.2306 11.9054 72.3057 11.9054C73.1932 11.9054 73.7682 12.5206 73.7682 13.5029C73.7682 13.8204 73.726 14.1377 73.6322 14.5843H71.4914C71.4811 14.6538 71.4811 14.6841 71.4811 14.7234C71.4811 15.2297 71.8047 15.4874 72.4314 15.4874C72.8179 15.4874 73.1622 15.3982 73.5486 15.21L73.3713 16.3012ZM72.7653 13.6911C72.7757 13.6019 72.7757 13.5226 72.7757 13.4735C72.7757 13.1161 72.588 12.9075 72.2644 12.9075C71.9193 12.9075 71.6791 13.1856 71.5749 13.6911H72.7653Z" fill="#FF9900"/>
<path fill-rule="evenodd" clip-rule="evenodd" d="M88.4076 16.3012C88.0315 16.4207 87.6768 16.4804 87.3007 16.4804C86.0999 16.4804 85.4629 15.8055 85.4629 14.5149C85.4629 13.0171 86.2669 11.9054 87.3531 11.9054C88.2406 11.9054 88.8044 12.5206 88.8044 13.5029C88.8044 13.8204 88.7623 14.1377 88.6684 14.5843H86.5277C86.5174 14.6538 86.5174 14.6841 86.5174 14.7234C86.5174 15.2297 86.841 15.4874 87.4676 15.4874C87.8542 15.4874 88.1984 15.3982 88.585 15.21L88.4076 16.3012ZM87.8017 13.6911C87.8017 13.6019 87.812 13.5226 87.812 13.4735C87.812 13.1161 87.6243 12.9075 87.3007 12.9075C86.9555 12.9075 86.7162 13.1856 86.6112 13.6911H87.8017Z" fill="#FF9900"/>
<path fill-rule="evenodd" clip-rule="evenodd" d="M57.3518 12.1442C57.1435 12.0051 56.8509 11.8963 56.454 11.8963C56.0151 11.8963 55.6708 11.9855 55.6708 12.4216C55.6708 13.1961 57.258 12.9082 57.258 14.5752C57.258 16.0934 56.2139 16.4909 55.2636 16.4909C54.8461 16.4909 54.3547 16.3616 54 16.2029L54.2608 15.0913C54.4803 15.2803 54.9089 15.4087 55.2739 15.4087C55.6183 15.4087 56.1407 15.3196 56.1407 14.7535C56.1407 13.871 54.5535 14.1981 54.5535 12.6497C54.5535 11.2313 55.4831 10.8142 56.3809 10.8142C56.8819 10.8142 57.363 10.8837 57.6341 11.0621L57.3518 12.1442Z" fill="#FF9900"/>
<path fill-rule="evenodd" clip-rule="evenodd" d="M63.7026 16.3016C63.4832 16.4006 63.1802 16.4702 62.7412 16.4702C61.8021 16.4702 61.2168 15.5777 61.2168 14.4857C61.2168 13.0567 62.0629 11.9255 63.305 11.9255C63.577 11.9255 63.9945 12.0343 64.3182 12.2134L64.0788 13.2555C63.8481 13.1066 63.608 13.0174 63.3575 13.0174C62.7834 13.0174 62.3659 13.523 62.3659 14.4162C62.3659 14.9324 62.6688 15.3593 63.1388 15.3593C63.4203 15.3593 63.6184 15.2996 63.8593 15.1704L63.7026 16.3016Z" fill="#FF9900"/>
<path fill-rule="evenodd" clip-rule="evenodd" d="M67.7328 15.1998C67.6811 15.5776 67.6286 15.9441 67.5975 16.3309H66.5638L66.6473 15.6267H66.637C66.3133 16.1035 65.9793 16.4307 65.3837 16.4307C64.7364 16.4307 64.3809 15.7755 64.3809 14.9322C64.3809 14.6344 64.4016 14.4758 64.4644 14.0194L64.7571 11.9949H65.9165L65.6032 14.0292C65.5713 14.2476 65.53 14.466 65.53 14.6941C65.53 14.9519 65.6549 15.2103 65.9682 15.1899C66.4382 15.1899 66.7204 14.6443 66.8039 13.9997L67.1276 11.9949H68.2449L67.7328 15.1998Z" fill="#FF9900"/>
<path fill-rule="evenodd" clip-rule="evenodd" d="M89.4825 16.2813H89.3052V15.5566H89.0547V15.3979H89.733V15.5566H89.4825V16.2813Z" fill="#FF9900"/>
<path fill-rule="evenodd" clip-rule="evenodd" d="M90.6425 16.2813H90.4754V15.5468L90.3188 16.2813H90.1518L89.9951 15.5468V16.2813H89.8281V15.3979H90.089L90.2353 16.0924H90.2456L90.392 15.3979H90.6425V16.2813Z" fill="#FF9900"/>
<path fill-rule="evenodd" clip-rule="evenodd" d="M88.6387 8.97782C88.6387 8.60074 88.952 8.29318 89.3273 8.29318C89.7138 8.29318 90.0168 8.60074 90.0168 8.97782C90.0168 9.35491 89.7138 9.66247 89.3273 9.66247C88.952 9.67229 88.6387 9.36473 88.6387 8.97782ZM89.3273 9.5136C89.6199 9.5136 89.8498 9.27556 89.8498 8.98765C89.8498 8.69973 89.6096 8.46169 89.3273 8.46169C89.0354 8.46169 88.8057 8.69973 88.8057 8.98765C88.8057 9.27556 89.0354 9.5136 89.3273 9.5136ZM89.2335 9.28539H89.0872V8.68009H89.3487C89.4005 8.68009 89.4633 8.68009 89.5054 8.70955C89.5571 8.73978 89.5786 8.79873 89.5786 8.85843C89.5786 8.92795 89.5365 8.98765 89.4736 9.0073L89.5889 9.27556H89.4323L89.3384 9.03677H89.2335V9.28539ZM89.2335 8.94759H89.3169C89.3487 8.94759 89.3798 8.94759 89.4005 8.93777C89.4211 8.92795 89.4323 8.89848 89.4323 8.86825C89.4323 8.84861 89.4211 8.81913 89.4005 8.80931C89.3798 8.79873 89.3384 8.79873 89.3169 8.79873H89.2438L89.2335 8.94759Z" fill="#CC0000"/>
<path fill-rule="evenodd" clip-rule="evenodd" d="M78.7703 4.40309L78.5826 5.5744C78.1755 5.36583 77.8725 5.28648 77.5489 5.28648C76.6924 5.28648 76.0864 6.11999 76.0864 7.30112C76.0864 8.11424 76.4936 8.61072 77.1624 8.61072C77.4439 8.61072 77.7572 8.52155 78.1437 8.33263L77.9449 9.56363C77.5171 9.68227 77.2459 9.72232 76.9222 9.72232C75.6793 9.72232 74.9062 8.82911 74.9062 7.40012C74.9062 5.47464 75.9719 4.125 77.5067 4.125C77.7047 4.125 77.8828 4.14465 78.0292 4.1847L78.5095 4.3041C78.6343 4.35322 78.6661 4.36304 78.7703 4.40309Z" fill="#CC0000"/>
<path fill-rule="evenodd" clip-rule="evenodd" d="M74.9384 5.20758C74.9066 5.19775 74.8652 5.19775 74.8231 5.19775C74.447 5.19775 74.2283 5.38592 73.8728 5.91187L73.977 5.24688H72.9329L72.2227 9.62302H73.3822C73.7997 6.94413 73.9039 6.4877 74.4573 6.4877C74.4891 6.4877 74.4994 6.4877 74.5408 6.4877C74.6458 5.96175 74.7809 5.57484 74.9797 5.21741L74.9384 5.20758Z" fill="#CC0000"/>
<path fill-rule="evenodd" clip-rule="evenodd" d="M68.0355 9.56431C67.7222 9.66331 67.4717 9.71243 67.2109 9.71243C66.6265 9.71243 66.3027 9.3754 66.3027 8.75045C66.3027 8.63105 66.3131 8.49201 66.3338 8.35296L66.4069 7.92676L66.4586 7.57914L66.9604 4.59195H68.1087L67.9735 5.2373H68.5684L68.4013 6.29903H67.8161L67.5139 8.12475C67.5035 8.2041 67.4924 8.26379 67.4924 8.30384C67.4924 8.53206 67.618 8.63105 67.89 8.63105C68.0252 8.63105 68.1191 8.62123 68.2025 8.59176L68.0355 9.56431Z" fill="#CC0000"/>
<path fill-rule="evenodd" clip-rule="evenodd" d="M63.4813 6.62527C63.4813 7.18145 63.7525 7.55853 64.3584 7.84644C64.818 8.06484 64.9016 8.1336 64.9016 8.33235C64.9016 8.60062 64.6924 8.72908 64.2431 8.72908C63.8988 8.72908 63.5855 8.67996 63.2093 8.55074L63.0527 9.56335L63.3144 9.61247C63.3875 9.62229 63.4813 9.64195 63.6165 9.65252C63.8885 9.67217 64.108 9.69182 64.2535 9.69182C65.4654 9.69182 66.0291 9.22556 66.0291 8.23336C66.0291 7.63788 65.7994 7.28044 65.2149 7.01294C64.7346 6.79454 64.6821 6.74467 64.6821 6.5361C64.6821 6.29806 64.8698 6.17942 65.2459 6.17942C65.4757 6.17942 65.7787 6.20889 66.0713 6.24819L66.2384 5.23633C65.9354 5.18646 65.4861 5.14716 65.2252 5.14716C63.9195 5.14716 63.471 5.81216 63.4813 6.62527Z" fill="#CC0000"/>
<path fill-rule="evenodd" clip-rule="evenodd" d="M87.9714 9.61302H86.8748L86.9273 9.18682C86.614 9.52385 86.28 9.67272 85.8625 9.67272C85.0163 9.67272 84.4629 8.94802 84.4629 7.85682C84.4629 6.39761 85.3193 5.16735 86.3428 5.16735C86.7913 5.16735 87.1261 5.35628 87.4497 5.76283L87.7002 4.22427H88.8382L87.9714 9.61302ZM86.2696 8.59134C86.8128 8.59134 87.1881 7.98604 87.1881 7.11247C87.1881 6.55706 86.9694 6.24873 86.5718 6.24873C86.0501 6.24873 85.674 6.86461 85.674 7.71777C85.674 8.29361 85.8728 8.59134 86.2696 8.59134Z" fill="#CC0000"/>
<path fill-rule="evenodd" clip-rule="evenodd" d="M71.6901 9.52329C71.2933 9.64193 70.918 9.70163 70.5005 9.70163C69.2154 9.70163 68.5371 9.02681 68.5371 7.73686C68.5371 6.22853 69.3928 5.1275 70.5522 5.1275C71.5025 5.1275 72.1084 5.75245 72.1084 6.72501C72.1084 7.04239 72.0662 7.35978 71.9621 7.80639H69.6647C69.6543 7.87591 69.6543 7.90613 69.6543 7.94543C69.6543 8.46156 69.9987 8.71925 70.6675 8.71925C71.0747 8.71925 71.4508 8.63007 71.8683 8.44192L71.6901 9.52329ZM71.0429 6.91317C71.0539 6.824 71.0539 6.74466 71.0539 6.69478C71.0539 6.33735 70.8551 6.12953 70.5108 6.12953C70.1451 6.12953 69.8842 6.40762 69.7792 6.91317H71.0429Z" fill="#CC0000"/>
<path fill-rule="evenodd" clip-rule="evenodd" d="M58.8465 9.61264H57.6982L58.3558 5.47453L56.8727 9.61264H56.0895L55.9956 5.50476L55.2958 9.61264H54.2207L55.1185 4.23447H56.7789L56.8211 7.56853L57.9487 4.23447H59.7451L58.8465 9.61264Z" fill="#CC0000"/>
<path fill-rule="evenodd" clip-rule="evenodd" d="M61.8217 7.66811C61.6961 7.65828 61.6444 7.64846 61.5609 7.64846C60.9024 7.64846 60.5788 7.87668 60.5788 8.31346C60.5788 8.58173 60.7458 8.76007 60.9963 8.76007C61.4559 8.76007 61.801 8.31346 61.8217 7.66811ZM62.6567 9.61323H61.6961L61.7167 9.1568C61.4249 9.52406 61.0384 9.68275 60.5056 9.68275C59.879 9.68275 59.4512 9.19685 59.4512 8.4918C59.4512 7.42025 60.2027 6.80512 61.4774 6.80512C61.6126 6.80512 61.7796 6.81495 61.9465 6.8346C61.9783 6.68572 61.9887 6.62603 61.9887 6.54668C61.9887 6.25953 61.7907 6.14995 61.2476 6.14995C60.9239 6.14995 60.5478 6.19982 60.2862 6.27917L60.1406 6.32829L60.0357 6.35852L60.1923 5.37613C60.7665 5.20762 61.1529 5.13809 61.5712 5.13809C62.5628 5.13809 63.0853 5.5847 63.0853 6.41822C63.0853 6.63661 63.0639 6.7953 62.9907 7.29102L62.7616 8.84924L62.7195 9.12733L62.6885 9.34496L62.6679 9.50441L62.6567 9.61323Z" fill="#CC0000"/>
<path fill-rule="evenodd" clip-rule="evenodd" d="M80.7651 7.66734C80.6506 7.65751 80.5877 7.64769 80.5043 7.64769C79.8466 7.64769 79.5118 7.87591 79.5118 8.31269C79.5118 8.58096 79.6796 8.7593 79.9301 8.7593C80.4001 8.7593 80.7444 8.31269 80.7651 7.66734ZM81.6009 9.61246H80.6403L80.6609 9.15603C80.3683 9.52329 79.9818 9.68198 79.4498 9.68198C78.8232 9.68198 78.3945 9.19608 78.3945 8.49103C78.3945 7.41947 79.1469 6.80435 80.4208 6.80435C80.5456 6.80435 80.7237 6.81418 80.8907 6.83383C80.9218 6.68495 80.9321 6.62526 80.9321 6.54591C80.9321 6.25876 80.7341 6.14918 80.191 6.14918C79.8673 6.14918 79.4911 6.19905 79.2303 6.2784L79.0633 6.31769L78.9584 6.34792L79.115 5.36554C79.6899 5.19702 80.0765 5.1275 80.494 5.1275C81.4855 5.1275 82.0081 5.57411 82.0081 6.40762C82.0081 6.62526 81.9873 6.78471 81.9142 7.28043L81.674 8.82882L81.6422 9.10691L81.6112 9.32455L81.5906 9.47341L81.6009 9.61246Z" fill="#CC0000"/>
<path fill-rule="evenodd" clip-rule="evenodd" d="M84.827 5.20758C84.7952 5.19775 84.7538 5.19775 84.7117 5.19775C84.3356 5.19775 84.1161 5.38592 83.7614 5.91187L83.8664 5.24688H82.8215L82.1113 9.62302H83.2708C83.6882 6.94413 83.7924 6.4877 84.3459 6.4877C84.3777 6.4877 84.3777 6.4877 84.4302 6.4877C84.5344 5.96175 84.6807 5.57484 84.8683 5.21741L84.827 5.20758Z" fill="#CC0000"/>
<g clip-path="url(#clip1_834_90)">
<mask id="mask1_834_90" style="mask-type:luminance" maskUnits="userSpaceOnUse" x="108" y="0" width="33" height="22">
<path d="M141 0H108V22H141V0Z" fill="white"/>
</mask>
<g mask="url(#mask1_834_90)">
<path d="M130.53 10.8138L130.86 10.9128C130.838 11.0062 130.805 11.0832 130.756 11.1437C130.706 11.2042 130.651 11.2537 130.58 11.2812C130.508 11.3142 130.42 11.3307 130.31 11.3307C130.178 11.3307 130.074 11.3142 129.986 11.2757C129.903 11.2372 129.832 11.1712 129.771 11.0722C129.711 10.9787 129.678 10.8523 129.678 10.7038C129.678 10.5058 129.733 10.3519 129.837 10.2419C129.942 10.1319 130.096 10.0824 130.288 10.0824C130.442 10.0824 130.558 10.1154 130.646 10.1759C130.734 10.2364 130.8 10.3299 130.838 10.4618L130.508 10.5333C130.497 10.4948 130.486 10.4673 130.47 10.4508C130.448 10.4233 130.426 10.4013 130.393 10.3848C130.36 10.3683 130.327 10.3629 130.294 10.3629C130.211 10.3629 130.145 10.3958 130.101 10.4673C130.068 10.5168 130.052 10.5993 130.052 10.7038C130.052 10.8358 130.074 10.9293 130.112 10.9787C130.151 11.0282 130.211 11.0557 130.283 11.0557C130.354 11.0557 130.409 11.0337 130.442 10.9952C130.486 10.9458 130.514 10.8908 130.53 10.8138Z" fill="#225E63"/>
<path d="M130.992 10.7039C130.992 10.5059 131.047 10.3519 131.157 10.2419C131.267 10.132 131.421 10.077 131.619 10.077C131.822 10.077 131.976 10.132 132.086 10.2364C132.196 10.3464 132.251 10.4949 132.251 10.6929C132.251 10.8358 132.229 10.9513 132.18 11.0393C132.13 11.1273 132.064 11.1988 131.971 11.2483C131.883 11.2978 131.768 11.3253 131.636 11.3253C131.498 11.3253 131.388 11.3033 131.295 11.2593C131.207 11.2153 131.135 11.1493 131.075 11.0503C131.014 10.9513 130.992 10.8468 130.992 10.7039ZM131.366 10.7039C131.366 10.8248 131.388 10.9128 131.432 10.9678C131.476 11.0228 131.537 11.0503 131.619 11.0503C131.702 11.0503 131.762 11.0228 131.806 10.9733C131.85 10.9183 131.872 10.8248 131.872 10.6929C131.872 10.5774 131.85 10.4949 131.801 10.4454C131.757 10.3904 131.691 10.3684 131.614 10.3684C131.537 10.3684 131.476 10.3959 131.432 10.4509C131.388 10.4949 131.366 10.5829 131.366 10.7039Z" fill="#225E63"/>
<path d="M132.443 10.0988H132.932L133.119 10.8357L133.306 10.0988H133.795V11.3086H133.487V10.3848L133.251 11.3086H132.976L132.74 10.3848V11.3086H132.432V10.0988H132.443Z" fill="#225E63"/>
<path d="M134.039 10.0988H134.66C134.798 10.0988 134.897 10.1318 134.963 10.1978C135.029 10.2638 135.062 10.3518 135.062 10.4728C135.062 10.5937 135.023 10.6927 134.952 10.7587C134.88 10.8302 134.765 10.8632 134.616 10.8632H134.413V11.3141H134.039V10.0988ZM134.413 10.6157H134.506C134.578 10.6157 134.627 10.6047 134.66 10.5772C134.688 10.5497 134.704 10.5222 134.704 10.4838C134.704 10.4453 134.693 10.4123 134.666 10.3848C134.638 10.3573 134.594 10.3463 134.523 10.3463H134.418V10.6157H134.413Z" fill="#225E63"/>
<path d="M135.26 10.0988H135.634V11.0117H136.217V11.3086H135.26V10.0988Z" fill="#225E63"/>
<path d="M136.402 10.0988H136.776V11.3086H136.402V10.0988Z" fill="#225E63"/>
<path d="M137.789 11.1052H137.366L137.305 11.3032H136.926L137.382 10.0934H137.789L138.246 11.3032H137.855L137.789 11.1052ZM137.712 10.8468L137.58 10.4123L137.448 10.8468H137.712Z" fill="#225E63"/>
<path d="M138.361 10.0988H138.708L139.164 10.7697V10.0988H139.516V11.3086H139.164L138.713 10.6432V11.3086H138.361V10.0988Z" fill="#225E63"/>
<path d="M139.682 10.0988H140.82V10.3958H140.44V11.3086H140.067V10.3958H139.687V10.0988H139.682Z" fill="#225E63"/>
<path d="M126.031 11.9414L127.115 11.6005L126.763 10.8196C126.504 11.1441 126.246 11.562 126.031 11.9414ZM125.663 8.37252L123.54 3.64331L108 4.52316L112.306 16.2692L120.593 13.6571C120.065 12.8983 119.872 11.9964 120.483 11.5565C121.165 11.0616 122.193 11.6335 122.847 12.4418C123.48 11.386 125.256 8.92793 125.663 8.37252Z" fill="#225E63"/>
<path d="M123.058 7.06105C123.707 7.06105 124.234 6.56613 124.234 5.95023C124.234 5.33433 123.707 4.83942 123.058 4.83942C122.409 4.83942 121.881 5.33433 121.881 5.95023C121.881 6.56063 122.409 7.06105 123.058 7.06105ZM122.095 7.53947H124.02V12.5711H122.095V7.53947Z" fill="#FEFEFE"/>
<path d="M121.143 9.00795C121.159 9.01345 121.17 9.00795 121.17 8.99145V7.71567C121.17 7.69917 121.159 7.68267 121.143 7.67167C121.143 7.67167 120.89 7.5067 120.12 7.46271C120.081 7.44071 119.405 7.43521 119.224 7.46271C116.419 7.68817 116.314 9.71733 116.314 9.80532V10.3002C116.314 10.3607 116.314 12.4339 119.224 12.6153C119.509 12.6373 120.065 12.6153 120.12 12.6153C120.791 12.6153 121.253 12.4119 121.253 12.4119C121.269 12.4064 121.28 12.3899 121.28 12.3734V11.1801C121.28 11.1636 121.269 11.1581 121.258 11.1691C121.258 11.1691 121.049 11.3341 120.136 11.4275C119.878 11.455 119.751 11.444 119.658 11.4275C118.36 11.2076 118.3 10.2617 118.3 10.2617C118.3 10.2452 118.294 10.2177 118.294 10.2068V9.84381C118.294 9.82731 118.294 9.79982 118.3 9.78882C118.3 9.78882 118.388 8.77149 119.658 8.66151H120.136C120.692 8.733 121.143 9.00795 121.143 9.00795Z" fill="#FEFEFE"/>
<path d="M110.971 12.5548C110.971 12.5713 110.982 12.5823 110.998 12.5823H112.873C112.89 12.5823 112.901 12.5713 112.901 12.5548V11.0921C112.901 11.0756 112.912 11.0646 112.928 11.0646C112.928 11.0646 115.925 11.279 115.925 9.27187C115.925 7.68263 114.045 7.51216 113.429 7.53966C113.418 7.53966 110.998 7.53966 110.998 7.53966C110.982 7.53966 110.971 7.55066 110.971 7.56715V12.5548ZM112.868 9.94826V8.63398H113.33C113.33 8.63398 113.995 8.66147 114.05 9.11789C114.061 9.15089 114.061 9.37635 114.05 9.38735C113.962 9.92076 113.385 9.94826 113.385 9.94826H112.868Z" fill="#FEFEFE"/>
<path d="M123.112 14.9988C123.266 14.9988 123.387 14.9988 123.585 14.9108C124.266 14.5534 126.571 8.92779 129.001 7.19558C129.018 7.18458 129.034 7.16809 129.045 7.15159C129.062 7.12959 129.062 7.10759 129.062 7.10759C129.062 7.10759 129.062 6.99212 128.704 6.99212C126.543 6.93163 124.294 11.4684 123.112 13.2611C123.095 13.2831 123.018 13.2611 123.018 13.2611C123.018 13.2611 122.226 12.3262 121.539 11.9688C121.522 11.9633 121.445 11.9358 121.363 11.9413C121.308 11.9413 120.989 12.0073 120.84 12.1613C120.664 12.3482 120.67 12.4527 120.67 12.6782C120.67 12.6947 120.681 12.7717 120.703 12.8101C120.873 13.1071 121.638 14.1629 122.27 14.7458C122.364 14.8173 122.512 14.9988 123.112 14.9988Z" fill="#2BBC5D"/>
<path d="M129.639 5.49683H131.437C131.794 5.49683 132.08 5.54632 132.295 5.6398C132.515 5.73879 132.696 5.87626 132.834 6.05223C132.977 6.2337 133.081 6.44267 133.142 6.67913C133.208 6.91559 133.241 7.16855 133.241 7.438C133.241 7.85593 133.191 8.18038 133.098 8.41134C133.004 8.6423 132.872 8.83477 132.702 8.99424C132.531 9.14822 132.35 9.2527 132.157 9.30769C131.893 9.37918 131.651 9.41217 131.437 9.41217H129.639V5.49683ZM130.848 6.38218V8.52132H131.145C131.398 8.52132 131.58 8.49383 131.684 8.43884C131.789 8.38384 131.877 8.28486 131.937 8.14738C131.998 8.00991 132.031 7.77894 132.031 7.4655C132.031 7.04757 131.965 6.76711 131.827 6.61314C131.69 6.45916 131.47 6.38218 131.151 6.38218H130.848Z" fill="#225E63"/>
<path d="M133.576 8.11972L134.731 8.04823C134.758 8.2352 134.808 8.37818 134.885 8.47716C135.011 8.63664 135.187 8.71362 135.418 8.71362C135.589 8.71362 135.726 8.67513 135.82 8.59264C135.913 8.51016 135.963 8.41667 135.963 8.31219C135.963 8.21321 135.919 8.11972 135.831 8.03724C135.743 7.95475 135.534 7.88326 135.209 7.81177C134.676 7.69079 134.302 7.53132 134.071 7.33335C133.84 7.13539 133.73 6.88243 133.73 6.57448C133.73 6.37101 133.791 6.18405 133.906 6.00258C134.022 5.82111 134.198 5.68363 134.434 5.57915C134.67 5.47466 134.989 5.42517 135.396 5.42517C135.897 5.42517 136.282 5.51866 136.54 5.70562C136.804 5.89259 136.958 6.18954 137.008 6.59648L135.864 6.66247C135.831 6.48649 135.77 6.36002 135.671 6.27753C135.572 6.19504 135.44 6.15655 135.27 6.15655C135.127 6.15655 135.022 6.18404 134.951 6.24453C134.879 6.30502 134.846 6.37651 134.846 6.4645C134.846 6.52499 134.874 6.58548 134.934 6.63497C134.989 6.68446 135.127 6.73395 135.341 6.77794C135.869 6.89343 136.249 7.00891 136.48 7.12439C136.711 7.23987 136.876 7.38834 136.98 7.55882C137.085 7.72929 137.134 7.92725 137.134 8.14172C137.134 8.39468 137.063 8.62564 136.925 8.8346C136.788 9.04907 136.59 9.20854 136.342 9.31852C136.095 9.4285 135.776 9.48349 135.396 9.48349C134.731 9.48349 134.269 9.35702 134.011 9.09856C133.758 8.8401 133.615 8.51566 133.576 8.11972Z" fill="#225E63"/>
<path d="M137.443 8.11972L138.598 8.04823C138.626 8.2352 138.675 8.37818 138.752 8.47716C138.879 8.63664 139.055 8.71362 139.286 8.71362C139.456 8.71362 139.593 8.67513 139.687 8.59264C139.78 8.51016 139.83 8.41667 139.83 8.31219C139.83 8.21321 139.786 8.11972 139.698 8.03724C139.61 7.95475 139.401 7.88326 139.077 7.81177C138.543 7.69079 138.169 7.53132 137.938 7.33335C137.713 7.13539 137.597 6.88243 137.597 6.57448C137.597 6.37101 137.658 6.18405 137.773 6.00258C137.889 5.82111 138.065 5.68363 138.301 5.57915C138.538 5.47466 138.857 5.42517 139.264 5.42517C139.764 5.42517 140.149 5.51866 140.407 5.70562C140.671 5.89259 140.825 6.18954 140.875 6.59648L139.731 6.66247C139.698 6.48649 139.637 6.36002 139.538 6.27753C139.439 6.19504 139.308 6.15655 139.137 6.15655C138.994 6.15655 138.89 6.18404 138.818 6.24453C138.747 6.30502 138.714 6.37651 138.714 6.4645C138.714 6.52499 138.741 6.58548 138.802 6.63497C138.857 6.68446 138.994 6.73395 139.209 6.77794C139.736 6.89343 140.116 7.00891 140.347 7.12439C140.578 7.23987 140.743 7.38834 140.847 7.55882C140.952 7.72929 141.001 7.92725 141.001 8.14172C141.001 8.39468 140.93 8.62564 140.792 8.8346C140.655 9.04907 140.457 9.20854 140.209 9.31852C139.962 9.4285 139.643 9.48349 139.264 9.48349C138.598 9.48349 138.136 9.35702 137.878 9.09856C137.619 8.8401 137.476 8.51566 137.443 8.11972Z" fill="#225E63"/>
</g>
</g>
<path d="M167.991 15.2635C167.991 15.2635 168.244 15.506 168.525 15.506C168.638 15.506 168.76 15.4599 168.76 15.3189C168.76 15.0403 167.753 15.05 167.753 14.3287C167.753 13.8957 168.1 13.6106 168.544 13.6106C169.025 13.6106 169.266 13.8763 169.266 13.8763L169.034 14.3453C169.034 14.3453 168.809 14.1383 168.541 14.1383C168.428 14.1383 168.303 14.1891 168.303 14.3222C168.303 14.617 169.309 14.5648 169.309 15.306C169.309 15.6965 169.025 16.0338 168.521 16.0338C168.218 16.0393 167.924 15.9191 167.703 15.6992L167.991 15.2635ZM169.806 15.2635C169.806 15.2635 170.06 15.506 170.341 15.506C170.454 15.506 170.576 15.4599 170.576 15.3189C170.576 15.0403 169.568 15.05 169.568 14.3287C169.568 13.8957 169.916 13.6106 170.36 13.6106C170.841 13.6106 171.079 13.8763 171.079 13.8763L170.848 14.3453C170.848 14.3453 170.622 14.1383 170.354 14.1383C170.241 14.1383 170.116 14.1891 170.116 14.3222C170.116 14.617 171.123 14.5648 171.123 15.306C171.123 15.6965 170.838 16.0338 170.335 16.0338C170.031 16.0393 169.737 15.9191 169.517 15.6992L169.806 15.2635ZM171.496 13.6504H172.043V15.5024H172.957V15.9945H171.496V13.6504ZM173.973 13.6504H175.374V14.142H174.521V14.5685H175.203V15.0601H174.521V15.5024H175.419V15.9945H173.975L173.973 13.6504ZM175.812 13.6504H176.365L176.984 14.7455C177.054 14.8749 177.116 15.0089 177.172 15.1452H177.178C177.178 15.1452 177.153 14.8934 177.153 14.7455V13.6504H177.701V15.994H177.151L176.528 14.9021C176.458 14.7727 176.396 14.6388 176.34 14.5024H176.334C176.334 14.5024 176.359 14.7542 176.359 14.9021V15.994H175.812V13.6504ZM179.245 13.6106C179.799 13.6106 180.084 13.9419 180.084 13.9419L179.83 14.3744C179.83 14.3744 179.58 14.1355 179.27 14.1355C178.842 14.1355 178.639 14.4664 178.639 14.8042C178.639 15.1521 178.858 15.5107 179.271 15.5107C179.607 15.5107 179.864 15.2219 179.864 15.2219L180.146 15.6419C179.911 15.898 179.585 16.0403 179.245 16.0352C178.545 16.0352 178.073 15.5139 178.073 14.819C178.073 14.1351 178.573 13.6106 179.245 13.6106ZM180.477 13.6504H181.257C181.485 13.6504 181.593 13.6665 181.689 13.7058C181.943 13.8065 182.102 14.0468 182.102 14.3878C182.102 14.6369 181.99 14.9095 181.765 15.0273V15.0338C181.796 15.0791 181.825 15.1263 181.85 15.1748L182.283 15.9945H181.678L181.281 15.2043H181.024V15.9945H180.477V13.6504ZM181.262 14.7127C181.437 14.7127 181.547 14.6115 181.547 14.4239C181.547 14.2469 181.485 14.142 181.21 14.142H181.026V14.7127H181.262ZM183.033 15.0338L182.294 13.6504H182.917L183.17 14.2141C183.242 14.3744 183.305 14.5514 183.305 14.5514H183.311C183.311 14.5514 183.373 14.3744 183.445 14.2141L183.695 13.6504H184.318L183.58 15.0338V15.9922H183.033V15.0338ZM184.568 13.6504H185.497C185.929 13.6504 186.226 13.9839 186.226 14.4571C186.226 14.9303 185.932 15.2704 185.497 15.2704H185.115V15.9949H184.568V13.6504ZM185.386 14.7778C185.578 14.7778 185.67 14.6438 185.67 14.4567C185.67 14.27 185.574 14.1424 185.395 14.1424H185.115V14.7783L185.386 14.7778ZM186.979 14.142H186.3V13.6504H188.205V14.142H187.526V15.9945H186.979V14.142ZM188.48 13.6504H189.027V15.9945H188.48V13.6504ZM190.569 13.6106C191.242 13.6106 191.738 14.1355 191.738 14.8074C191.738 15.4959 191.245 16.0338 190.569 16.0338C189.893 16.0338 189.399 15.4959 189.399 14.8074C189.399 14.1355 189.893 13.6106 190.569 13.6106ZM190.569 15.5093C190.906 15.5093 191.172 15.2066 191.172 14.8074C191.172 14.4239 190.903 14.1355 190.569 14.1355C190.235 14.1355 189.965 14.4239 189.965 14.8074C189.965 15.2076 190.234 15.5093 190.569 15.5093ZM192.11 13.6504H192.664L193.284 14.7455C193.354 14.8749 193.416 15.0089 193.472 15.1452H193.477C193.477 15.1452 193.452 14.8934 193.452 14.7455V13.6504H193.999V15.994H193.449L192.827 14.9021C192.758 14.7727 192.695 14.6388 192.639 14.5024H192.633C192.633 14.5024 192.658 14.7542 192.658 14.9021V15.994H192.11V13.6504Z" fill="#E7A210"/>
<path d="M167.964 11.0358C167.964 11.0358 168.526 11.5732 169.149 11.5732C169.398 11.5732 169.668 11.472 169.668 11.1597C169.668 10.5418 167.438 10.5636 167.438 8.96566C167.438 8.00729 168.208 7.37469 169.19 7.37469C170.257 7.37469 170.784 7.96339 170.784 7.96339L170.27 9.00217C170.27 9.00217 169.772 8.5447 169.176 8.5447C168.927 8.5447 168.65 8.66022 168.65 8.95133C168.65 9.60659 170.88 9.48874 170.88 11.1301C170.88 11.9947 170.25 12.7446 169.134 12.7446C167.971 12.7446 167.326 12.0034 167.326 12.0034L167.964 11.0358ZM171.712 7.45971H174.816V8.54932H172.925V9.49382H174.435V10.5876H172.925V11.5658H174.913V12.6554H171.712V7.45971ZM178.044 7.37469C179.271 7.37469 179.901 8.10849 179.901 8.10849L179.34 9.06686C179.34 9.06686 178.785 8.53638 178.1 8.53638C177.15 8.53638 176.7 9.27018 176.7 10.0183C176.7 10.7881 177.185 11.582 178.1 11.582C178.848 11.582 179.416 10.9429 179.416 10.9429L180.042 11.8726C180.042 11.8726 179.342 12.7446 178.046 12.7446C176.495 12.7446 175.449 11.5894 175.449 10.0493C175.446 8.53684 176.555 7.37469 178.044 7.37469ZM180.705 7.45971H181.917V10.7433C181.917 11.2881 182.257 11.5788 182.776 11.5788C183.296 11.5788 183.635 11.2877 183.635 10.7433V7.45971H184.847V10.7433C184.847 11.9124 184.029 12.7409 182.783 12.7409C181.522 12.7409 180.705 11.9124 180.705 10.7433V7.45971ZM185.943 7.45971H187.667C188.173 7.45971 188.415 7.49622 188.63 7.58355C189.191 7.80859 189.544 8.34 189.544 9.0969C189.544 9.64863 189.294 10.2521 188.803 10.5132V10.528C188.871 10.6278 188.933 10.7322 188.989 10.8404L189.951 12.6564H188.602L187.723 10.9055H187.154V12.6554H185.943V7.45971ZM187.681 9.81359C188.069 9.81359 188.311 9.58809 188.311 9.17452C188.311 8.78175 188.173 8.54932 187.564 8.54932H187.155V9.81544L187.681 9.81359ZM190.667 7.45971H193.771V8.54932H191.88V9.49382H193.39V10.5876H191.88V11.5658H193.868V12.6554H190.667V7.45971Z" fill="#252320"/>
<path fill-rule="evenodd" clip-rule="evenodd" d="M165.977 8.60794C165.759 8.38753 165.462 8.26554 165.154 8.26877L164.581 8.26924V7.08259C164.585 6.56089 164.45 6.04798 164.19 5.59745C163.936 5.1506 163.57 4.77909 163.129 4.52078C162.221 3.99307 161.105 3.99307 160.197 4.52078C159.757 4.77909 159.391 5.1506 159.136 5.59745C158.877 6.04752 158.742 6.55997 158.746 7.08074V8.26877H158.173C157.865 8.26554 157.568 8.38753 157.349 8.60794C157.123 8.81866 156.996 9.11717 157 9.42815V15.3406C156.996 15.652 157.123 15.9505 157.349 16.1612C157.568 16.3817 157.865 16.5036 158.173 16.4999H165.154C165.462 16.5032 165.759 16.3817 165.977 16.1612C166.203 15.9505 166.33 15.652 166.327 15.3406V9.42861C166.33 9.11717 166.203 8.81912 165.977 8.60794ZM163.464 7.08074V8.26831H159.864V7.08074C159.863 6.76236 159.947 6.44953 160.107 6.17552C160.266 5.89641 160.496 5.66444 160.772 5.50364C161.323 5.17371 162.008 5.17371 162.559 5.50364C162.834 5.66491 163.063 5.89641 163.222 6.17552C163.381 6.44953 163.465 6.76236 163.464 7.08074Z" fill="#E7A210"/>
<path d="M160.501 13.4989L163.6 10.5938L164.014 10.9815L160.501 14.2674L158.871 12.7434L159.279 12.3552L160.501 13.4989Z" fill="white"/>
<defs>
<clipPath id="clip0_834_90">
<rect width="38" height="22" fill="white"/>
</clipPath>
<clipPath id="clip1_834_90">
<rect width="33" height="22" fill="white" transform="translate(108)"/>
</clipPath>
</defs>
</svg>
