<svg width="24" height="24" viewBox="0 0 24 24" fill="none" xmlns="http://www.w3.org/2000/svg">
<path d="M10.3639 2.99952C9.38967 2.98817 8.42289 3.17025 7.51955 3.5352C6.61621 3.90016 5.79428 4.44075 5.10136 5.12564C4.40844 5.81053 3.85831 6.62611 3.48285 7.52513C3.10739 8.42416 2.91406 9.38875 2.91406 10.363C2.91406 11.3373 3.10739 12.3019 3.48285 13.2009C3.85831 14.0999 4.40844 14.9155 5.10136 15.6004C5.79428 16.2853 6.61621 16.8259 7.51955 17.1908C8.42289 17.5558 9.38967 17.7379 10.3639 17.7265C12.3019 17.7039 14.1529 16.9182 15.5154 15.5397C16.8779 14.1612 17.6421 12.3012 17.6421 10.363C17.6421 8.42483 16.8779 6.56479 15.5154 5.18632C14.1529 3.80785 12.3019 3.02211 10.3639 2.99952Z" stroke="black" stroke-miterlimit="10"/>
<path d="M15.8569 15.8584L20.9999 21.0014" stroke="black" stroke-miterlimit="10" stroke-linecap="round"/>
</svg>
