<svg width="20" height="22" viewBox="0 0 20 22" fill="none" xmlns="http://www.w3.org/2000/svg">
<path d="M18.0498 1.90001C18.5405 2.00791 18.9785 2.28303 19.2888 2.67828C19.5991 3.07353 19.7623 3.56433 19.7506 4.06668V8.43251C19.7499 11.2885 18.8927 14.0787 17.2898 16.4425C15.6869 18.8063 13.412 20.6351 10.7589 21.6925C10.2699 21.8752 9.7313 21.8752 9.24226 21.6925C6.58923 20.6351 4.31428 18.8063 2.71139 16.4425C1.10849 14.0787 0.251302 11.2885 0.25059 8.43251V4.02334C0.238869 3.521 0.402115 3.03019 0.712386 2.63494C1.02266 2.23969 1.46066 1.96458 1.95142 1.85668L9.53476 0.177511C9.8407 0.1018 10.1605 0.1018 10.4664 0.177511L18.0498 1.90001Z" fill="#20BF55"/>
<path d="M9.16597 14.0008C8.8833 14.0025 8.61116 13.8937 8.40764 13.6975L5.93764 11.2708C5.8361 11.1701 5.7555 11.0503 5.7005 10.9183C5.6455 10.7863 5.61719 10.6447 5.61719 10.5017C5.61719 10.3587 5.6455 10.2171 5.7005 10.0851C5.7555 9.95304 5.8361 9.83322 5.93764 9.73251C6.14061 9.53074 6.41518 9.41749 6.70139 9.41749C6.98759 9.41749 7.26216 9.53074 7.46514 9.73251L9.1768 11.4117L13.6293 7.07835C13.731 6.97805 13.8515 6.89877 13.9839 6.84503C14.1162 6.7913 14.2579 6.76416 14.4007 6.76516C14.5436 6.76617 14.6848 6.7953 14.8164 6.8509C14.948 6.90649 15.0673 6.98746 15.1676 7.08918C15.2679 7.1909 15.3472 7.31138 15.4009 7.44374C15.4547 7.5761 15.4818 7.71774 15.4808 7.86059C15.4798 8.00344 15.4507 8.14469 15.3951 8.27628C15.3395 8.40787 15.2585 8.52722 15.1568 8.62751L9.94597 13.7517C9.72858 13.9336 9.44855 14.023 9.16597 14.0008Z" fill="#EDEBEA"/>
</svg>
