<svg width="13" height="13" viewBox="0 0 13 13" fill="none" xmlns="http://www.w3.org/2000/svg">
<path d="M13 1.62499C13 1.92291 12.7563 2.16666 12.4583 2.16666H0.541667C0.24375 2.16666 0 1.92291 0 1.62499C0 1.32708 0.24375 1.08333 0.541667 1.08333H12.4583C12.7563 1.08333 13 1.32708 13 1.62499ZM8.125 10.8333H4.875C4.57708 10.8333 4.33333 11.0771 4.33333 11.375C4.33333 11.6729 4.57708 11.9167 4.875 11.9167H8.125C8.42292 11.9167 8.66667 11.6729 8.66667 11.375C8.66667 11.0771 8.42292 10.8333 8.125 10.8333ZM10.2917 5.95833H2.70833C2.41042 5.95833 2.16667 6.20208 2.16667 6.5C2.16667 6.79791 2.41042 7.04166 2.70833 7.04166H10.2917C10.5896 7.04166 10.8333 6.79791 10.8333 6.5C10.8333 6.20208 10.5896 5.95833 10.2917 5.95833Z" fill="black"/>
</svg>
