<svg width="22" height="22" viewBox="0 0 22 22" fill="none" xmlns="http://www.w3.org/2000/svg">
<g clip-path="url(#clip0_1041_8)">
<mask id="mask0_1041_8" style="mask-type:luminance" maskUnits="userSpaceOnUse" x="0" y="0" width="22" height="22">
<path d="M22 0H0V22H22V0Z" fill="white"/>
</mask>
<g mask="url(#mask0_1041_8)">
<path d="M16.2708 0.916992C13.8306 0.916992 11.8151 3.1836 11 4.25335C10.1849 3.1836 8.16943 0.916992 5.72915 0.916992C2.57009 0.916992 0 3.82143 0 7.39097C0 9.33844 0.773008 11.1534 2.12605 12.3955C2.14573 12.4296 2.16992 12.4609 2.19811 12.4891L10.6764 20.9499C10.7659 21.0389 10.8827 21.0837 11 21.0837C11.1173 21.0837 11.2345 21.0389 11.3241 20.9494L20.0843 12.1923L20.1747 12.1046C20.2464 12.037 20.3171 11.9685 20.3963 11.8808C20.4294 11.8481 20.4567 11.8114 20.4777 11.7716C21.4602 10.5685 22 9.01661 22 7.39097C22 3.82143 19.43 0.916992 16.2708 0.916992ZM19.715 11.256C19.7025 11.2707 19.6909 11.2864 19.6806 11.3025C19.6376 11.3517 19.5906 11.3951 19.5441 11.4395L10.9996 19.9777L2.95054 11.9448C2.92458 11.8937 2.88832 11.8472 2.84402 11.8083C1.61893 10.7385 0.916652 9.1285 0.916652 7.39097C0.916652 4.32674 3.0754 1.83369 5.72915 1.83369C8.35295 1.83369 10.5922 5.25598 10.6146 5.29044C10.7838 5.55182 11.2162 5.55182 11.3854 5.29044C11.4078 5.25598 13.647 1.83369 16.2708 1.83369C18.9246 1.83369 21.0833 4.32678 21.0833 7.39097C21.0833 8.83489 20.5972 10.2077 19.715 11.256Z" fill="black"/>
</g>
</g>
<defs>
<clipPath id="clip0_1041_8">
<rect width="22" height="22" fill="white"/>
</clipPath>
</defs>
</svg>
